Input #0, mov,mp4,m4a,3gp,3g2,mj2, from '0e29354b-68d9-4c4b-8e9d-29c42fdc30e2.mp4':
  Metadata:
    major_brand     : mp42
    minor_version   : 0
    compatible_brands: isommp42
    encoder         : Google
  Duration: 00:00:30.06, start: 0.000000, bitrate: 790 kb/s
  Stream #0:0[0x1](und): Video: h264 (Constrained Baseline) (avc1 / 0x31637661), yuv420p(tv, bt709, progressive), 480x640 [SAR 1:1 DAR 3:4], 596 kb/s, 30 fps, 30 tbr, 15360 tbn (default)
    Metadata:
      handler_name    : ISO Media file produced by Google Inc.
      vendor_id       : [0][0][0][0]
  Stream #0:1[0x2](eng): Audio: aac (LC) (mp4a / 0x6134706D), 48000 Hz, stereo, fltp, 192 kb/s (default)
    Metadata:
      handler_name    : ISO Media file produced by Google Inc.
      vendor_id       : [0][0][0][0]
[Parsed_volumedetect_0 @ 0x55555563a880] n_samples: 0
Stream mapping:
  Stream #0:0 -> #0:0 (h264 (native) -> wrapped_avframe (native))
  Stream #0:1 -> #0:1 (aac (native) -> pcm_s16le (native))
Press [q] to stop, [?] for help
Output #0, null, to 'pipe:':
  Metadata:
    major_brand     : mp42
    minor_version   : 0
    compatible_brands: isommp42
    encoder         : Lavf62.3.100
  Stream #0:0(und): Video: wrapped_avframe, yuv420p(tv, bt709, progressive), 480x640 [SAR 1:1 DAR 3:4], q=2-31, 200 kb/s, 30 fps, 30 tbn (default)
    Metadata:
      encoder         : Lavc62.11.100 wrapped_avframe
      handler_name    : ISO Media file produced by Google Inc.
      vendor_id       : [0][0][0][0]
  Stream #0:1(eng): Audio: pcm_s16le, 48000 Hz, stereo, s16, 1536 kb/s (default)
    Metadata:
      encoder         : Lavc62.11.100 pcm_s16le
      handler_name    : ISO Media file produced by Google Inc.
      vendor_id       : [0][0][0][0]
[Parsed_volumedetect_0 @ 0x7fffc0002f40] n_samples: 2885632
[Parsed_volumedetect_0 @ 0x7fffc0002f40] mean_volume: -10.0 dB
[Parsed_volumedetect_0 @ 0x7fffc0002f40] max_volume: 0.0 dB
[Parsed_volumedetect_0 @ 0x7fffc0002f40] histogram_0db: 15714
[out#0/null @ 0x555555610cc0] video:366KiB audio:5636KiB subtitle:0KiB other streams:0KiB global headers:0KiB muxing overhead: unknown
frame=  900 fps=0.0 q=-0.0 Lsize=N/A time=00:00:30.00 bitrate=N/A speed= 128x elapsed=0:00:00.23    
